<?xml version="1.0" encoding="UTF-8"?>
<svg id="Layer_1" data-name="Layer 1" xmlns="http://www.w3.org/2000/svg" viewBox="0 0 960 960">
  <defs>
    <style>
      .cls-1 {
        fill: #7a3e65;
      }

      .cls-1, .cls-2, .cls-3, .cls-4 {
        stroke-width: 0px;
      }

      .cls-2 {
        fill: #c17b9e;
      }

      .cls-3 {
        fill: #cfb2c1;
      }

      .cls-4 {
        fill: #512843;
      }
    </style>
  </defs>
  <path class="cls-1" d="M736.3,190.27l81.85-21.08.61.9,2.07,494.21-2.68,2.69-16.86.72-64.03-9.97-.96-2.52V190.27"/>
  <path class="cls-1" d="M262.93,701.32l.3.02,216.05,62.78.55.42.94.75-.3,188.12-.64.8-216.91-105.37v-147.52"/>
  <path class="cls-3" d="M736.3,655.22l-256.11,61.34-128.59-31.04-88.67,15.8,216.91,63.22,334.77-90.63,3.55-6.92-81.85-11.77"/>
  <path class="cls-4" d="M696.74,258.76l-2.09-2.38-212.49-61.74-2.33.9-2.13-1.09-334.36,96.41-1.83,2.23,2.68,1.47,76.46,11.21,2.7-.92,256.11-61.33,128.59,31.04,88.67-15.81"/>
  <path class="cls-2" d="M223.37,769.82l-81.85,19.76-.14-.47-3.22-492.36,3.37-3.64,81.85,11.76v464.96"/>
  <path class="cls-1" d="M333.87,578.83l145.97,17.12,1.1-1.64.59-228.31-1.69-1.87-145.97,17.13v197.57"/>
  <path class="cls-2" d="M625.8,578.83l-145.97,17.12v-231.82l145.97,17.13v197.57"/>
  <path class="cls-2" d="M696.74,258.76l-216.91-63.22V5.87l216.91,105.37v147.52"/>
  <path class="cls-1" d="M479.84,5.87L73.31,202.12v555.84l68.21,31.61v-496.48l338.32-97.56V5.87"/>
  <path class="cls-2" d="M818.15,169.19v497.8l-338.32,97.56v189.67l406.53-196.26V202.12l-68.21-32.93"/>
</svg>