<?xml version="1.0" encoding="UTF-8"?>
<svg id="Layer_1" data-name="Layer 1" xmlns="http://www.w3.org/2000/svg" viewBox="0 0 960 960">
  <defs>
    <style>
      .cls-1 {
        fill: #d9a741;
      }

      .cls-1, .cls-2, .cls-3, .cls-4 {
        stroke-width: 0px;
      }

      .cls-2 {
        fill: #876929;
      }

      .cls-3 {
        fill: #624a1e;
      }

      .cls-4 {
        fill: #fad791;
      }
    </style>
  </defs>
  <path class="cls-1" d="M875.09,312.95l-12.69-.21-381.91-113.07-.23-5.23V3.79l394.85,197.46-.03,111.69"/>
  <path class="cls-2" d="M480.23,205.87l.04-202.07L85.4,201.18l-.05,558.44.2.1h0s394.65,197.37,394.65,197.37l1.31-1.82-.51-187.79-.77-1.05-24.67-17.59-305.42-91.01,1.54-353.24,328.56-98.72"/>
  <path class="cls-1" d="M539.28,606.3l-403.49,56.76.03-365.32,403.49,56.84-.03,251.72"/>
  <path class="cls-2" d="M334.81,583.21l145.4,18.51.02-242.66-145.4,18.49-.03,205.66"/>
  <path class="cls-2" d="M188.34,564.57l94.36,11.99.03-192.39-94.39,12.02v168.38"/>
  <path class="cls-3" d="M135.82,297.74l344.46-103.3,394.82,118.51-335.53,41.65-403.74-56.87"/>
  <path class="cls-1" d="M874.89,551.01l-394.67,49.81.02-241.76,394.65,50.27v141.68"/>
  <path class="cls-1" d="M874.86,648.06l-8.49.37-384.94,116.52-1.21,1.48-.03,190.66,394.67-197.29v-111.73"/>
  <path class="cls-4" d="M135.79,663.06l344.43,103.36,394.65-118.37-335.58-41.76-403.49,56.76"/>
</svg>